<svg width="45" height="33" viewBox="0 0 45 33" fill="none" xmlns="http://www.w3.org/2000/svg">
<path fill-rule="evenodd" clip-rule="evenodd" d="M22.5 0.833336C27.8414 0.833336 32.949 3.63498 37.709 8.23809C39.3329 9.80847 40.802 11.485 42.0952 13.1623C42.8756 14.1744 43.4297 14.9705 43.7331 15.4449L44.4079 16.5L43.7331 17.5551C43.4297 18.0295 42.8756 18.8256 42.0952 19.8377C40.802 21.515 39.3329 23.1915 37.709 24.7619C32.949 29.365 27.8414 32.1667 22.5 32.1667C17.1585 32.1667 12.0509 29.365 7.291 24.7619C5.66711 23.1915 4.198 21.515 2.90472 19.8377C2.12432 18.8256 1.57025 18.0295 1.26688 17.5551L0.592041 16.5L1.26688 15.4449C1.57025 14.9705 2.12432 14.1744 2.90472 13.1623C4.198 11.485 5.66711 9.80847 7.291 8.23809C12.0509 3.63498 17.1585 0.833336 22.5 0.833336ZM38.9936 15.5539C37.8095 14.0182 36.4632 12.4819 34.9862 11.0536C30.8866 7.08899 26.6224 4.75 22.5 4.75C18.3775 4.75 14.1134 7.08899 10.0137 11.0536C8.53675 12.4819 7.1905 14.0182 6.00641 15.5539C5.75067 15.8855 5.51436 16.202 5.29831 16.5C5.51436 16.798 5.75067 17.1145 6.00641 17.4461C7.1905 18.9818 8.53675 20.5181 10.0137 21.9464C14.1134 25.911 18.3775 28.25 22.5 28.25C26.6224 28.25 30.8866 25.911 34.9862 21.9464C36.4632 20.5181 37.8095 18.9818 38.9936 17.4461C39.2493 17.1145 39.4856 16.798 39.7017 16.5C39.4856 16.202 39.2493 15.8855 38.9936 15.5539ZM14.6666 16.5C14.6666 20.8262 18.1737 24.3333 22.5 24.3333C26.8262 24.3333 30.3333 20.8262 30.3333 16.5C30.3333 12.1738 26.8262 8.66667 22.5 8.66667C18.1737 8.66667 14.6666 12.1738 14.6666 16.5ZM26.4166 16.5C26.4166 18.6631 24.6631 20.4167 22.5 20.4167C20.3368 20.4167 18.5833 18.6631 18.5833 16.5C18.5833 14.3369 20.3368 12.5833 22.5 12.5833C24.6631 12.5833 26.4166 14.3369 26.4166 16.5Z" fill="#B4AFAF"/>
</svg>
