<svg width="45" height="42" viewBox="0 0 45 42" fill="none" xmlns="http://www.w3.org/2000/svg">
<path fill-rule="evenodd" clip-rule="evenodd" d="M3.75672 0L0.951936 2.77372L9.01358 10.7461C8.26257 11.3616 7.51934 12.0226 6.7843 12.7255C5.13972 14.2983 3.6519 15.9774 2.34214 17.6572C1.5518 18.6708 0.990666 19.4682 0.683438 19.9433L0 21L0.683438 22.0568C0.990666 22.5318 1.5518 23.3292 2.34214 24.3428C3.6519 26.0226 5.13972 27.7017 6.7843 29.2745C11.6049 33.8846 16.7775 36.6905 22.187 36.6905C25.6001 36.6905 28.9189 35.5735 32.1145 33.5911L40.6176 42L43.4223 39.2263L3.75672 0ZM29.2171 30.7258L26.2171 27.759C25.036 28.4492 23.6582 28.8453 22.187 28.8453C17.8056 28.8453 14.2539 25.3328 14.2539 21C14.2539 19.545 14.6544 18.1826 15.3523 17.0146L11.8338 13.5351C11.0655 14.1478 10.3008 14.8194 9.54171 15.5453C8.04592 16.9758 6.68251 18.5145 5.48334 20.0525C5.22435 20.3846 4.98502 20.7016 4.76622 21C4.98502 21.2985 5.22435 21.6154 5.48334 21.9476C6.68251 23.4856 8.04592 25.0242 9.54171 26.4547C13.6936 30.4254 18.0121 32.7679 22.187 32.7679C24.5039 32.7679 26.8649 32.0465 29.2171 30.7258ZM18.3548 19.9838C18.2672 20.3079 18.2204 20.6486 18.2204 21C18.2204 23.1664 19.9963 24.9226 22.187 24.9226C22.5424 24.9226 22.8868 24.8764 23.2145 24.7897L18.3548 19.9838ZM38.2478 28.6314L35.443 25.8576C36.7008 24.6003 37.8568 23.2737 38.8908 21.9476C39.1498 21.6154 39.3891 21.2985 39.6079 21C39.3891 20.7015 39.1498 20.3846 38.8908 20.0524C37.6916 18.5145 36.3282 16.9758 34.8324 15.5453C30.6805 11.5747 26.3621 9.23211 22.1871 9.23211C21.1512 9.23211 20.1065 9.37632 19.0577 9.65383L15.9202 6.55108C17.9679 5.74368 20.0592 5.30949 22.1871 5.30949C27.5966 5.30949 32.7693 8.11539 37.5898 12.7255C39.2344 14.2983 40.7222 15.9774 42.032 17.6572C42.8223 18.6708 43.3835 19.4682 43.6907 19.9432L44.3741 21L43.6907 22.0568C43.3835 22.5318 42.8223 23.3292 42.032 24.3428C40.8992 25.7956 39.6332 27.2479 38.2478 28.6314Z" fill="#B4AFAF"/>
</svg>
